<svg width="22" height="22" viewBox="0 0 22 22" fill="none" xmlns="http://www.w3.org/2000/svg">
<path d="M18.5317 8.26245C18.5317 8.26245 17.9554 15.5438 17.621 18.611C17.4618 20.0759 16.5734 20.9343 15.1181 20.9613C12.3488 21.0122 9.57631 21.0154 6.80806 20.9559C5.40801 20.9267 4.53444 20.0575 4.37841 18.6185C4.04193 15.5244 3.46875 8.26245 3.46875 8.26245" stroke="white" stroke-width="1.5" stroke-linecap="round" stroke-linejoin="round"/>
<path d="M20 4.77201H2" stroke="white" stroke-width="1.5" stroke-linecap="round" stroke-linejoin="round"/>
<path d="M16.5317 4.77204C15.6985 4.77204 14.9809 4.17202 14.8175 3.34063L14.5595 2.02599C14.4003 1.41948 13.8611 1 13.2465 1H8.75344C8.13886 1 7.59965 1.41948 7.44043 2.02599L7.1825 3.34063C7.01903 4.17202 6.3015 4.77204 5.46826 4.77204" stroke="white" stroke-width="1.5" stroke-linecap="round" stroke-linejoin="round"/>
</svg>
