<svg width="31" height="30" viewBox="0 0 31 30" fill="none" xmlns="http://www.w3.org/2000/svg">
<path d="M22.3298 4.54527H17.9146C16.8146 4.55234 15.7704 4.07643 15.0734 3.25044L13.6194 1.29524C12.9341 0.462011 11.8898 -0.0161322 10.7915 0.000415817H7.6702C2.06781 0.000415817 0.000259896 3.19864 0.000259896 8.63693V14.5155C-0.00671107 15.1619 29.9978 15.1611 29.9997 14.5155V12.8063C30.0264 7.36799 28.0122 4.54527 22.3298 4.54527Z" fill="#FFB333"/>
<path d="M29.3419 8.71852C29.099 8.02177 28.7281 7.3763 28.2482 6.81518C28.0973 6.63797 27.9323 6.47328 27.7547 6.32271C26.2129 5.11008 24.2703 4.52089 22.3131 4.67226H7.64222C4.14787 4.67226 2.01392 5.80361 0.973617 8.0264C0.622437 8.74662 0.375459 9.51294 0.240071 10.3024C0.240071 10.5952 0.146711 10.8881 0.106699 11.1942C0.0353585 11.8484 -0.000260086 12.506 1.42957e-06 13.1641V21.0437C-0.000290453 21.708 0.0532327 22.3712 0.160048 23.0269C0.328034 24.1856 0.727124 25.299 1.33372 26.3011C1.61005 26.7848 1.9461 27.232 2.33401 27.6322C4.11692 29.2627 6.48074 30.1114 8.89592 29.988H21.0861C23.4974 30.1123 25.8575 29.2633 27.6347 27.6322C28.0273 27.2328 28.3678 26.7856 28.6483 26.3011C29.2585 25.2983 29.6663 24.186 29.8487 23.0269C29.9444 22.3701 29.9935 21.7074 29.9954 21.0437V13.1641C30.041 11.6554 29.8197 10.1505 29.3419 8.71852Z" fill="#FFA000"/>
<path d="M21.8017 19.9991H8.12372C7.50311 19.9991 7 19.5515 7 18.9995C7 18.4475 7.50311 18 8.12372 18H21.9104C22.2451 18.0034 22.5585 18.1467 22.7562 18.3869C22.9282 18.5657 23.0149 18.797 22.9979 19.0318C22.9885 19.2988 22.8593 19.5514 22.639 19.7332C22.4188 19.9149 22.126 20.0107 21.8259 19.9991H21.8017Z" fill="white"/>
</svg>
