<svg width="22" height="22" viewBox="0 0 22 22" fill="none" xmlns="http://www.w3.org/2000/svg">
<path fill-rule="evenodd" clip-rule="evenodd" d="M15.6858 1H6.31063C3.04689 1 1 3.31278 1 6.58578V15.4142C1 18.6872 3.03822 21 6.31063 21H15.6804C18.9582 21 20.9953 18.6872 20.9953 15.4142V6.58578C20.9997 3.31278 18.9615 1 15.6858 1Z" stroke="white" stroke-width="1.5" stroke-linecap="round" stroke-linejoin="round"/>
<path fill-rule="evenodd" clip-rule="evenodd" d="M9.61814 7.54081C9.61814 8.64626 8.7231 9.54146 7.61785 9.54146C6.51368 9.54146 5.61755 8.64626 5.61755 7.54081C5.61755 6.43536 6.51368 5.54016 7.61785 5.54016C8.72202 5.54124 9.61705 6.43644 9.61814 7.54081Z" stroke="white" stroke-width="1.5" stroke-linecap="round" stroke-linejoin="round"/>
<path d="M21 14.2234C19.9998 13.1938 18.0764 11.114 15.9851 11.114C13.8927 11.114 12.6867 15.7016 10.6745 15.7016C8.66229 15.7016 6.83428 13.6273 5.22192 14.9571C3.60955 16.2858 2.08386 19.0028 2.08386 19.0028" stroke="white" stroke-width="1.5" stroke-linecap="round" stroke-linejoin="round"/>
</svg>
