<svg width="22" height="22" viewBox="0 0 22 22" fill="none" xmlns="http://www.w3.org/2000/svg">
<path fill-rule="evenodd" clip-rule="evenodd" d="M8.40481 13.9397C12.3973 13.9397 15.8096 14.5446 15.8096 16.9612C15.8096 19.3777 12.42 20 8.40481 20C4.41128 20 1 19.4004 1 16.9828C1 14.5652 4.38855 13.9397 8.40481 13.9397Z" stroke="white" stroke-width="1.5" stroke-linecap="round" stroke-linejoin="round"/>
<path fill-rule="evenodd" clip-rule="evenodd" d="M8.40474 10.4908C5.78351 10.4908 3.65796 8.36646 3.65796 5.7454C3.65796 3.12434 5.78351 1 8.40474 1C11.0249 1 13.1504 3.12434 13.1504 5.7454C13.1602 8.35672 11.0498 10.4811 8.43829 10.4908H8.40474Z" stroke="white" stroke-width="1.5" stroke-linecap="round" stroke-linejoin="round"/>
<path d="M16.0793 10C17.7723 9.72384 18.9969 8.03744 19 5.99632C19 3.98466 17.7364 2.31543 16.0793 2" stroke="white" stroke-width="1.5" stroke-linecap="round" stroke-linejoin="round"/>
<path d="M18 13C19.7665 13.332 21 14.1138 21 15.7235C21 16.8316 20.4191 17.5502 19.4806 18" stroke="white" stroke-width="1.5" stroke-linecap="round" stroke-linejoin="round"/>
</svg>
