<svg width="22" height="22" viewBox="0 0 22 22" fill="none" xmlns="http://www.w3.org/2000/svg">
<path fill-rule="evenodd" clip-rule="evenodd" d="M12.227 2.71683L14.2574 6.58233C14.4564 6.96181 14.8405 7.22495 15.2859 7.28584L19.8282 7.90889C20.9504 8.06329 21.397 9.3594 20.5848 10.1021L17.3002 13.1096C16.9774 13.4054 16.8305 13.8306 16.9068 14.2481L17.682 18.4942C17.8729 19.5445 16.6997 20.3459 15.6967 19.849L11.6369 17.8428C11.2389 17.646 10.7622 17.646 10.3631 17.8428L6.30334 19.849C5.30026 20.3459 4.1271 19.5445 4.31916 18.4942L5.09316 14.2481C5.16952 13.8306 5.02259 13.4054 4.6998 13.1096L1.4152 10.1021C0.603017 9.3594 1.0496 8.06329 2.17185 7.90889L6.71406 7.28584C7.15949 7.22495 7.54475 6.96181 7.74375 6.58233L9.77305 2.71683C10.2752 1.76106 11.7248 1.76106 12.227 2.71683Z" stroke="white" stroke-width="1.5" stroke-linecap="round" stroke-linejoin="round"/>
</svg>
